<?xml version="1.0" encoding="utf-8"?>
<!-- Generator: Adobe Illustrator 21.1.0, SVG Export Plug-In . SVG Version: 6.00 Build 0)  -->
<svg version="1.1" id="Layer_1" xmlns="http://www.w3.org/2000/svg" xmlns:xlink="http://www.w3.org/1999/xlink" x="0px" y="0px"
	 viewBox="0 0 1008 612" style="enable-background:new 0 0 1008 612;" xml:space="preserve">
<style type="text/css">
	.st0{fill:#00A1DF;}
	.st1{fill:#0055B8;}
	.st2{fill-rule:evenodd;clip-rule:evenodd;fill:#99999A;}
	.st3{fill-rule:evenodd;clip-rule:evenodd;fill:#0055B8;}
</style>
<g>
	<g>
		<polygon class="st0" points="715.6,250 761.5,204.1 876.1,318.7 830.1,364.7 715.6,364.7 		"/>
		<path class="st1" d="M850.3,215.2c-9.5-9.5-24.4-10.2-33.9-0.6l-14.1,14.1l-2.6-2.6l14.1-14.1c10.9-10.9,28.1-10.3,39,0.6l0.5,0.5
			l1.1,1.1l0.5,0.5c1.9,1.9,3.4,3.9,4.7,6c2.1,1.3,4.2,2.8,6,4.7l0.5,0.5l1.1,1.1l0.5,0.5c10.9,11,11.6,28.1,0.6,39l-14.1,14.1
			l-2.6-2.5l14.1-14.1c9.5-9.5,8.9-24.4-0.6-33.9l-0.5-0.5l-1.1-1.1l-0.5-0.5c-0.2-0.2-0.5-0.4-0.7-0.6c2.6,9.1,0.4,19.1-6.8,26.4
			l-14.1,14.1l-2.6-2.6l14.1-14.1c7.7-7.7,8.8-18.8,3.9-27.8c-9-4.8-20.1-3.7-27.8,3.9l-14.1,14.1l-2.6-2.6l14.1-14.1
			c7.3-7.3,17.3-9.4,26.4-6.8c-0.2-0.2-0.4-0.5-0.7-0.7l-0.5-0.5l-1.1-1.1L850.3,215.2z"/>
		<path class="st1" d="M718.4,364.7h-2.8v-64.2c16.3-18.1,33.8-30.2,49.6-38.2c-0.1-0.1-0.2-0.2-0.1-0.1l0.2,0.1c1-0.5,2-1,3-1.5
			l1.2-0.6c13.6-6.3,26.2-9.7,36.5-11.5l36.2,36.2c-9.5,10.6-23.5,19-42,25.1c17.1,61.7,58.2,6.1,58.2,6.1c2.1-3.2,3.9-6.4,5.5-9.5
			l12,12l-46,46h-45.3c7.9-11.6,12.8-26.2,12.8-41.7c0-25.8-13-48.4-32.3-60.7c4.7,9.8,7.4,20.9,7.4,32.8
			C772.7,329.8,749.3,359,718.4,364.7z M761.4,204.1l0.9,0.8l18.3,18.3c-6.6,3.6-11.1,6.3-11.1,6.3c-25.4,17.7-42.8,33.5-54,46.3
			V250L761.4,204.1z"/>
		<path class="st2" d="M597.8,347.9c-1.6,2.1-4.2,4.1-7.9,5.7c-3.8,1.8-7.2,2.2-10.3,2.2c-4.1,0-7.8-1.4-10.6-4
			c-3.1-2.9-4.5-6-4.5-9.4c0-5.8,3.9-11,12.4-15.5c4.1-2.1,10.7-4,20.9-7V347.9z M621.8,361.5c-1.9,0-3.5-1.2-4.1-2.9v-18.1
			c0-0.4,0-1.7-0.1-3.5l0-12.1v-25.4c0-6.4-3.1-11.5-7.9-15.2c-4.8-3.7-10.7-5.6-17.5-5.6c-5.8,0-11.7,1.4-17.2,4
			c-5.2,2.6-9.9,5.8-14.2,9.7c-1.1,1-1.9,2.6-1.8,4c0.1,1.1,1.7,3.3,3.8,2.8c2.5-0.4,6.7-3.7,9-4.8c3.4-1.8,8.5-2.8,11.7-2.8
			c6.3,0,10.3,2.2,12.8,6.1c1,1.6,1.3,3.5,1.5,6.2v8c-15.8,3.7-26.7,6.6-33.2,9.7c-13.2,6.1-20.1,14.4-20.1,24.9
			c0,6.2,2.9,11.8,7.5,15.6c4.6,3.7,10.5,5.5,17,5.5c5.1,0,10.4-0.4,16.2-2.8c5-1.9,8.9-4.6,13-7.2v4.1c0.3,1.5,1.5,2.8,3.2,2.8h9.3
			h4h7.9v-3.1H621.8z M421.1,253.2h0.7c2.4,0,4.4,2,4.4,4.4v99.6c0,2.4-2,4.4-4.4,4.4h-0.7v3.1l8.2,0h5c1.7,0,2.8-1.2,3.1-2.7
			c0-0.3,0-0.5,0-0.5v-81.9l33.1,85.3c1,1.9,3.9,2.7,5.7,2.7c2.1,0,3.7-1.5,4.7-3.2c0.2-0.4,0.3-0.6,0.3-0.6l34.1-84.5v70.4v3.1v6.2
			v2.7c0,1.8,1.4,3,3.1,3h11.1h3.8h8.1v-3.1h-0.7c-2.4,0-4.4-2-4.4-4.4v-99.8c0-2.4,1.9-4.4,4.4-4.4h0.7v-2.9l-11.8,0.1h-10.7
			c-1.4,0-2.4,0.8-3,1.4c-0.3,0.3-0.5,0.6-0.6,0.9c-0.2,0.3-0.3,0.5-0.3,0.5l-34.1,83.6l-33-83.5c-0.6-1.6-2.2-2.9-3.9-2.9l-14.7,0
			c-0.1,0-0.3,0-0.4,0.1h-7.6V253.2z M651.9,358.2c0.5,1.9,2.2,3.4,4.3,3.4h0.7v3.1h-11.8h-6h-11.8v-3.1h0.7c2.4,0,4.4-2,4.4-4.4
			v-99.6c0-2.4-2-4.4-4.4-4.4h-0.7v-2.9h7.7c0.3-0.1,0.5-0.1,0.8-0.1l12.9,0c1.9,0,3.5,1.3,3.2,3.3V358.2z M661.7,250.3h7.7
			c0.3-0.1,0.5-0.1,0.8-0.1l12.9,0c2,0,3.5,1.3,3.2,3.3v104.6c0.4,1.9,2.2,3.4,4.3,3.4h0.7v3.1h-11.8h-6h-11.8v-3.1h0.7
			c2.4,0,4.4-2,4.4-4.4v-99.6c0-2.4-2-4.4-4.4-4.4h-0.7V250.3z"/>
		<path class="st3" d="M397.4,309.6c-2.5-12.6-9.5-21.1-18-21.1c-8.3,0-15.3,8.8-18.1,21.1H397.4z M393.7,362
			c0.3,1.4-0.4,2.8-1.7,3.4c-4,1.6-8.2,2.4-12.6,2.4c-20.9,0-38.7-19.1-38.7-42.6v-4.4c0-23.6,17.8-42.7,38.7-42.7
			c18.1,0,34.4,14,36.8,33.8c0.2,1.7,0.1,3.9,0.1,3.9c0,1.6-1.1,3.5-2.7,3.5h-53.4c0,0.5,0,1.1,0,1.6v3.4c0,2.6,0.2,5.1,0.5,7.4
			c0.4,4.4,1.6,8.5,3.4,12.1c3.1,7,7.8,11.3,13.3,13c2.5,0.6,4.7,1,7.1,1c1.5,0,3-0.2,4.5-0.5l0.7-0.2c1.6-0.4,3.1,0.6,3.5,2.2
			L393.7,362z M258.1,281.6h8.2h3.6h8.7c1.8,0,3.3,1.5,3.2,3.2v50c0,6.3,1,11.1,2.6,14.2c2.3,4,5.9,6.1,11.6,6.1
			c2.9,0,6.2-0.9,9.4-2.8c2.3-1.2,4.8-3.2,7.6-5.8v-57.9c-0.2-2.3-2.1-4.1-4.4-4.1H308v-2.9h8.5h3.3h9.3c2,0,3.6,1.4,3.4,3.5v73
			c0.2,2.2,2.1,4,4.3,4h0.7v3.1h-8.1h-3.7h-9.5c-1.8,0-3.1-1.5-3.2-3.2v-5.2c-3.8,3.2-7.3,5.7-10.4,7.4c-5.1,2.6-10.5,4.1-15.9,4.1
			c-6.2,0-11.7-1.9-16.2-5.7c-4.4-3.8-7.3-8.9-7.3-15.2v-12.2c-0.1-0.2-0.1-0.4-0.1-0.5v-45.7c0-2.4-1.9-4.4-4.4-4.4h-0.7V281.6z
			 M234.9,250.2c0.2,0,0.5-0.1,0.7-0.1l12.9,0c1.9,0,3.5,1.3,3.2,3.4v108.3c0.1,1.9-1.1,3.3-3,3.3l-13.3,0c-0.2,0-0.3,0-0.5,0H227
			V362h0.7c2.4,0,4.4-2,4.4-4.4v-100c0-2.4-2-4.4-4.4-4.4H227v-2.9H234.9z M198.9,303.9c6.1,1.7,11.2,4.3,15.3,7.9
			c6.2,5.2,9.4,11.8,9.4,19.9c0,12.5-6.2,21.7-18,27.3c-8.9,4.1-17.5,6.2-31.8,6.2h-33.8c-0.2,0-0.4,0-0.6-0.1h-7.6V362h0.7
			c2.4,0,4.4-2,4.4-4.4v-100c0-2.4-2-4.4-4.4-4.4h-0.7v-2.9h8.1c0.2,0,0.4,0,0.5,0h33.5c17.6,0,44.5,5.5,44.5,28.7
			c0,6.6-2.6,12.5-7.4,17.3C207.6,299.4,203.6,301.9,198.9,303.9z M161.4,260.4c-1.3,1-1.7,3-1.7,5.8v32.5c0,0.8,0.2,1.3,0.6,1.7
			c0.7,0.4,1.4,0.6,2.5,0.6h4.3c9.3,0,13.4-0.9,18.5-2.6c7.3-2.6,13.2-8.1,13.2-18.5c0-10.4-5.7-16.1-12.9-18.5
			c-4.6-1.4-10.4-2.5-16.8-2.5l-1.4,0C164.4,259.1,162.4,259.5,161.4,260.4z M168,356c14.4,0,21.3-2.4,27.1-7
			c4.7-3.7,7.2-9.1,7.2-16c0-9.2-3.7-15.4-10.9-19.1c-5.4-2.8-10.7-4.4-21.3-4.4h-5.8c-2,0-3.4,0.1-4.3,0.3c-0.2,0.2-0.3,0.4-0.3,1
			v2.9v35.6c0,2.9,0.7,4.3,2,5.2C163,355.5,165.1,356,168,356z"/>
	</g>
	<g>
		<path class="st3" d="M136.6,400.8h-4.3c0,1.2,0.2,2.3,0.7,3.2c0.5,0.9,1.1,1.6,1.9,2.2c0.8,0.6,1.7,1,2.7,1.3
			c1,0.3,2.1,0.4,3.2,0.4c1.4,0,2.6-0.2,3.6-0.5c1.1-0.3,1.9-0.8,2.6-1.3c0.7-0.6,1.2-1.3,1.6-2.1c0.4-0.8,0.5-1.6,0.5-2.6
			c0-1.1-0.2-2-0.7-2.7c-0.5-0.7-1-1.3-1.7-1.7c-0.6-0.4-1.3-0.7-2-0.9c-0.7-0.2-1.2-0.3-1.5-0.4c-1.3-0.3-2.3-0.6-3.1-0.8
			c-0.8-0.2-1.4-0.4-1.8-0.6c-0.4-0.2-0.7-0.4-0.9-0.7c-0.2-0.2-0.2-0.6-0.2-1c0-0.4,0.1-0.8,0.3-1.1c0.2-0.3,0.4-0.5,0.7-0.7
			c0.3-0.2,0.6-0.3,1-0.4c0.4-0.1,0.7-0.1,1.1-0.1c0.5,0,1,0,1.5,0.1c0.5,0.1,0.9,0.3,1.2,0.5c0.4,0.2,0.6,0.5,0.8,0.9
			c0.2,0.4,0.4,0.9,0.4,1.5h4.3c0-1.2-0.2-2.1-0.7-2.9c-0.4-0.8-1-1.5-1.8-2c-0.7-0.5-1.6-0.9-2.6-1.1c-1-0.2-2-0.4-3-0.4
			c-0.9,0-1.8,0.1-2.7,0.4c-0.9,0.2-1.7,0.6-2.4,1.1c-0.7,0.5-1.3,1.1-1.7,1.9c-0.4,0.7-0.6,1.6-0.6,2.7c0,0.9,0.2,1.7,0.5,2.4
			c0.4,0.6,0.8,1.2,1.4,1.6c0.6,0.4,1.2,0.8,1.9,1.1c0.7,0.3,1.4,0.5,2.2,0.7c0.7,0.2,1.5,0.4,2.2,0.6c0.7,0.2,1.3,0.4,1.9,0.6
			c0.6,0.2,1,0.5,1.4,0.8c0.4,0.3,0.5,0.8,0.5,1.3c0,0.5-0.1,0.9-0.4,1.3c-0.3,0.3-0.6,0.6-1,0.8c-0.4,0.2-0.8,0.3-1.3,0.4
			c-0.4,0.1-0.9,0.1-1.3,0.1c-0.6,0-1.1-0.1-1.7-0.2c-0.5-0.1-1-0.4-1.4-0.6c-0.4-0.3-0.7-0.7-1-1.2
			C136.7,402.1,136.6,401.5,136.6,400.8z"/>
		<path class="st3" d="M161.1,399.7l2.6-7.4h0l2.5,7.4H161.1z M161.5,387.5l-7.6,20h4.4l1.6-4.5h7.5l1.5,4.5h4.6l-7.5-20H161.5z"/>
		<polygon class="st3" points="179.5,387.5 179.5,407.5 183.6,407.5 183.6,394.1 183.6,394.1 192,407.5 196.4,407.5 196.4,387.5 
			192.2,387.5 192.2,400.9 192.2,400.9 183.8,387.5 		"/>
		<polygon class="st3" points="208.9,391.2 208.9,407.5 213.3,407.5 213.3,391.2 219.3,391.2 219.3,387.5 202.9,387.5 202.9,391.2 
					"/>
		<path class="st3" d="M229.3,397.6c0-0.9,0.1-1.7,0.3-2.5c0.2-0.8,0.5-1.6,1-2.2c0.4-0.7,1-1.2,1.7-1.6c0.7-0.4,1.5-0.6,2.5-0.6
			c1,0,1.8,0.2,2.5,0.6c0.7,0.4,1.2,0.9,1.7,1.6c0.4,0.6,0.7,1.4,0.9,2.2c0.2,0.8,0.3,1.7,0.3,2.5c0,0.8-0.1,1.7-0.3,2.5
			c-0.2,0.8-0.5,1.5-0.9,2.1c-0.4,0.6-1,1.2-1.7,1.5c-0.7,0.4-1.5,0.6-2.5,0.6c-1,0-1.8-0.2-2.5-0.6c-0.7-0.4-1.3-0.9-1.7-1.5
			c-0.4-0.6-0.7-1.3-1-2.1C229.4,399.2,229.3,398.4,229.3,397.6z M224.9,397.6c0,1.5,0.2,2.8,0.7,4.1c0.4,1.2,1.1,2.3,1.9,3.3
			c0.8,0.9,1.9,1.7,3.1,2.2c1.2,0.5,2.6,0.8,4.2,0.8c1.6,0,2.9-0.3,4.1-0.8c1.2-0.5,2.2-1.3,3.1-2.2c0.8-0.9,1.5-2,1.9-3.3
			c0.4-1.3,0.7-2.6,0.7-4.1c0-1.5-0.2-2.9-0.7-4.1c-0.5-1.3-1.1-2.4-1.9-3.4c-0.8-1-1.9-1.7-3.1-2.2c-1.2-0.5-2.6-0.8-4.1-0.8
			c-1.5,0-2.9,0.3-4.2,0.8c-1.2,0.5-2.2,1.3-3.1,2.2c-0.9,1-1.5,2.1-1.9,3.4C225.2,394.7,224.9,396.1,224.9,397.6z"/>
		<path class="st3" d="M268.3,403.8v-12.6h3.1c1.1,0,2,0.2,2.7,0.5c0.8,0.3,1.3,0.7,1.8,1.3c0.4,0.6,0.8,1.3,1,2.1
			c0.2,0.8,0.3,1.7,0.3,2.7c0,1.1-0.1,2-0.4,2.8c-0.3,0.8-0.6,1.4-1.1,1.9c-0.5,0.5-1,0.8-1.6,1c-0.6,0.2-1.2,0.3-1.9,0.3H268.3z
			 M263.8,387.5v20h8.6c1.5,0,2.9-0.3,4-0.8c1.1-0.5,2.1-1.2,2.8-2.1c0.8-0.9,1.3-2,1.7-3.2c0.4-1.2,0.6-2.6,0.6-4
			c0-1.7-0.2-3.1-0.7-4.4c-0.5-1.2-1.1-2.3-1.9-3.1c-0.8-0.8-1.8-1.4-2.9-1.9c-1.1-0.4-2.3-0.6-3.6-0.6H263.8z"/>
		<path class="st3" d="M292.4,397.6c0-0.9,0.1-1.7,0.3-2.5c0.2-0.8,0.5-1.6,1-2.2c0.4-0.7,1-1.2,1.7-1.6c0.7-0.4,1.5-0.6,2.5-0.6
			c1,0,1.8,0.2,2.5,0.6c0.7,0.4,1.2,0.9,1.7,1.6c0.4,0.6,0.7,1.4,0.9,2.2c0.2,0.8,0.3,1.7,0.3,2.5c0,0.8-0.1,1.7-0.3,2.5
			c-0.2,0.8-0.5,1.5-0.9,2.1c-0.4,0.6-1,1.2-1.7,1.5c-0.7,0.4-1.5,0.6-2.5,0.6c-1,0-1.8-0.2-2.5-0.6c-0.7-0.4-1.2-0.9-1.7-1.5
			c-0.4-0.6-0.7-1.3-1-2.1C292.5,399.2,292.4,398.4,292.4,397.6z M288,397.6c0,1.5,0.2,2.8,0.7,4.1c0.4,1.2,1.1,2.3,1.9,3.3
			c0.8,0.9,1.9,1.7,3.1,2.2c1.2,0.5,2.6,0.8,4.1,0.8c1.6,0,2.9-0.3,4.2-0.8c1.2-0.5,2.2-1.3,3.1-2.2c0.8-0.9,1.5-2,1.9-3.3
			c0.5-1.3,0.7-2.6,0.7-4.1c0-1.5-0.2-2.9-0.7-4.1c-0.4-1.3-1.1-2.4-1.9-3.4c-0.8-1-1.9-1.7-3.1-2.2c-1.2-0.5-2.6-0.8-4.2-0.8
			c-1.5,0-2.9,0.3-4.1,0.8c-1.2,0.5-2.2,1.3-3.1,2.2c-0.8,1-1.5,2.1-1.9,3.4C288.2,394.7,288,396.1,288,397.6z"/>
		<polygon class="st3" points="314.9,387.5 314.9,407.5 319,407.5 319,393.4 319.1,393.4 324,407.5 327.4,407.5 332.3,393.3 
			332.3,393.3 332.3,407.5 336.4,407.5 336.4,387.5 330.2,387.5 325.8,401.2 325.8,401.2 321.1,387.5 		"/>
		<rect x="344.5" y="387.5" class="st3" width="4.4" height="20"/>
		<polygon class="st3" points="357,387.5 357,407.5 361.1,407.5 361.1,394.1 361.2,394.1 369.5,407.5 373.9,407.5 373.9,387.5 
			369.8,387.5 369.8,400.9 369.8,400.9 361.4,387.5 		"/>
		<path class="st3" d="M396.5,405.2l0.5,2.3h2.8v-10.8h-8.4v3.3h4.4c-0.1,1.4-0.6,2.5-1.4,3.2c-0.8,0.7-1.9,1.1-3.4,1.1
			c-1,0-1.8-0.2-2.5-0.6c-0.7-0.4-1.3-0.9-1.7-1.5c-0.4-0.6-0.7-1.3-1-2.1c-0.2-0.8-0.3-1.6-0.3-2.5c0-0.9,0.1-1.7,0.3-2.5
			c0.2-0.8,0.5-1.6,1-2.2c0.4-0.7,1-1.2,1.7-1.6c0.7-0.4,1.5-0.6,2.5-0.6c1.1,0,2,0.3,2.7,0.8c0.7,0.6,1.2,1.4,1.5,2.5h4.2
			c-0.1-1.1-0.4-2.2-0.9-3c-0.5-0.9-1.2-1.6-1.9-2.2c-0.8-0.6-1.6-1.1-2.6-1.3c-1-0.3-1.9-0.5-3-0.5c-1.5,0-2.9,0.3-4.2,0.8
			c-1.2,0.5-2.2,1.3-3.1,2.2c-0.8,1-1.5,2.1-1.9,3.4c-0.5,1.3-0.7,2.7-0.7,4.1c0,1.5,0.2,2.8,0.7,4.1c0.4,1.2,1.1,2.3,1.9,3.3
			c0.8,0.9,1.9,1.7,3.1,2.2c1.2,0.5,2.6,0.8,4.2,0.8c1,0,1.9-0.2,2.9-0.6C394.8,406.9,395.7,406.2,396.5,405.2z"/>
		<path class="st3" d="M411,397.6c0-0.9,0.1-1.7,0.3-2.5c0.2-0.8,0.5-1.6,1-2.2c0.4-0.7,1-1.2,1.7-1.6c0.7-0.4,1.5-0.6,2.5-0.6
			c1,0,1.8,0.2,2.5,0.6c0.7,0.4,1.2,0.9,1.7,1.6c0.4,0.6,0.7,1.4,0.9,2.2c0.2,0.8,0.3,1.7,0.3,2.5c0,0.8-0.1,1.7-0.3,2.5
			c-0.2,0.8-0.5,1.5-0.9,2.1c-0.4,0.6-1,1.2-1.7,1.5c-0.7,0.4-1.5,0.6-2.5,0.6c-1,0-1.8-0.2-2.5-0.6c-0.7-0.4-1.2-0.9-1.7-1.5
			c-0.4-0.6-0.8-1.3-1-2.1C411.1,399.2,411,398.4,411,397.6z M406.6,397.6c0,1.5,0.2,2.8,0.7,4.1c0.5,1.2,1.1,2.3,1.9,3.3
			c0.8,0.9,1.9,1.7,3.1,2.2c1.2,0.5,2.6,0.8,4.2,0.8c1.6,0,2.9-0.3,4.2-0.8c1.2-0.5,2.2-1.3,3.1-2.2c0.8-0.9,1.5-2,1.9-3.3
			c0.5-1.3,0.7-2.6,0.7-4.1c0-1.5-0.2-2.9-0.7-4.1c-0.4-1.3-1.1-2.4-1.9-3.4c-0.8-1-1.9-1.7-3.1-2.2c-1.2-0.5-2.6-0.8-4.2-0.8
			c-1.5,0-2.9,0.3-4.2,0.8c-1.2,0.5-2.2,1.3-3.1,2.2c-0.8,1-1.5,2.1-1.9,3.4C406.9,394.7,406.6,396.1,406.6,397.6z"/>
	</g>
</g>
</svg>
